<?xml version="1.0" encoding="utf-8"?>
<!-- Generator: Adobe Illustrator 16.0.0, SVG Export Plug-In . SVG Version: 6.00 Build 0)  -->
<!DOCTYPE svg PUBLIC "-//W3C//DTD SVG 1.1//EN" "http://www.w3.org/Graphics/SVG/1.1/DTD/svg11.dtd">
<svg version="1.1" id="Capa_1" xmlns="http://www.w3.org/2000/svg" xmlns:xlink="http://www.w3.org/1999/xlink" x="0px" y="0px"
	 width="337px" height="198px" viewBox="0 0 337 198" enable-background="new 0 0 337 198" xml:space="preserve">
<g>
	<path fill-rule="evenodd" clip-rule="evenodd" fill="#FFFFFF" d="M326.296,100.445c0,49.186-70.814,89.059-158.161,89.059
		c-87.348,0-158.155-39.873-158.155-89.059c0-49.185,70.808-89.059,158.155-89.059C255.481,11.386,326.296,51.26,326.296,100.445z"
		/>
	<g>
		<path fill-rule="evenodd" clip-rule="evenodd" fill="#003987" d="M98.194,131.164l-23.037,3.649L63.702,62.499L75.8,60.583
			l10.637,67.155l10.941-1.732L98.194,131.164L98.194,131.164z M127.839,116.857l-3.484-39.833c-0.712-8.134-5.644-11.801-14.795-11
			c-9.15,0.8-13.371,5.268-12.658,13.402l0.635,7.267l10.407-0.911l-0.604-6.908c-0.335-3.828-0.381-6.25-0.139-7.265
			c0.244-1.016,1.143-1.592,2.697-1.728c1.555-0.136,2.562,0.349,3.02,1.454c0.378,0.871,0.736,3.25,1.076,7.137l0.793,9.062
			l-3.049,0.267c-9.391,0.821-13.723,5.389-12.996,13.703l1.555,17.764c0.304,3.468,1.363,5.938,3.18,7.405
			c2.336,1.905,6.195,2.622,11.578,2.151c5.383-0.472,9.033-1.815,10.948-4.031C127.536,123.031,128.147,120.387,127.839,116.857
			L127.839,116.857z M117.376,117.14c0.294,3.35,0.243,5.523-0.151,6.522c-0.356,0.754-1.192,1.188-2.508,1.304
			c-1.257,0.11-2.128-0.205-2.614-0.945c-0.627-0.971-1.082-3.069-1.365-6.3l-1.396-15.969c-0.361-4.126-0.298-6.845,0.191-8.153
			c0.399-0.939,1.258-1.466,2.573-1.581l3.05-0.267L117.376,117.14L117.376,117.14z M160.612,114.754
			c0.122,3.479-0.629,6.059-2.252,7.737c-2.027,2.174-5.74,3.354-11.141,3.543s-9.187-0.7-11.357-2.667
			c-1.797-1.56-2.757-4.108-2.881-7.648l-1.396-39.961c-0.284-8.16,4.192-12.401,13.434-12.724
			c9.181-0.321,13.913,3.599,14.198,11.76l0.254,7.29l-10.53,0.368l-0.241-6.93c-0.137-3.9-0.34-6.266-0.609-7.097
			c-0.338-1.069-1.316-1.576-2.937-1.52c-1.56,0.054-2.501,0.613-2.824,1.675c-0.324,1.063-0.419,3.514-0.284,7.354l1.354,38.791
			c0.115,3.3,0.428,5.377,0.938,6.23c0.51,0.853,1.426,1.256,2.746,1.21c1.26-0.044,2.086-0.463,2.479-1.258
			c0.504-1.038,0.697-3.238,0.58-6.598l-0.779-22.321l10.441-0.365L160.612,114.754L160.612,114.754z M182.956,125.346
			c-6.664,0-11.228-0.99-13.688-2.972c-1.981-1.562-2.972-4.173-2.972-7.835V56.272h10.446v6.844h6.124v4.233h-6.124v46.379
			c0,2.821,0.405,4.772,1.216,5.854s2.477,1.621,4.998,1.621V125.346L182.956,125.346z M213.972,116.356
			c-0.183,3.477-1.155,5.981-2.919,7.512c-2.269,1.985-6.07,2.838-11.407,2.559c-5.396-0.282-9.12-1.5-11.171-3.651
			c-1.595-1.707-2.299-4.329-2.113-7.866l2.093-39.93c0.428-8.154,5.257-11.989,14.49-11.505c9.174,0.481,13.548,4.798,13.12,12.953
			l-0.485,9.263l-17.179-0.9l-1.573,30.037c-0.174,3.298-0.043,5.394,0.392,6.288c0.434,0.895,1.311,1.376,2.63,1.445
			c1.259,0.066,2.118-0.28,2.579-1.037c0.593-0.991,0.978-3.165,1.153-6.522l1.169-22.303l10.433,0.546L213.972,116.356
			L213.972,116.356z M205.277,80.911l0.245-4.677c0.204-3.897,0.209-6.271,0.013-7.123c-0.303-1.098-1.233-1.688-2.793-1.77
			c-1.559-0.082-2.545,0.392-2.96,1.423c-0.415,1.03-0.724,3.464-0.924,7.301l-0.236,4.497L205.277,80.911L205.277,80.911z
			 M247.572,120.856c-0.432,3.517-1.58,5.977-3.446,7.381c-2.335,1.77-6.184,2.325-11.548,1.667
			c-5.362-0.659-8.988-2.162-10.878-4.512c-1.472-1.813-1.994-4.449-1.57-7.905l2.174-17.698c1.017-8.283,6.203-11.85,15.56-10.701
			l3.039,0.373l1.108-9.028c0.476-3.874,0.619-6.275,0.431-7.206c-0.219-1.176-1.103-1.859-2.652-2.05
			c-1.549-0.19-2.548,0.187-2.996,1.129s-0.907,3.322-1.375,7.135l-0.846,6.882l-10.368-1.273l0.889-7.24
			c0.995-8.104,6.052-11.597,15.169-10.477s13.179,5.731,12.184,13.835L247.572,120.856L247.572,120.856z M237.279,118.958
			l3.106-25.296l-3.039-0.373c-1.311-0.162-2.259,0.175-2.846,1.012c-0.75,1.178-1.377,3.823-1.883,7.934l-1.953,15.91
			c-0.395,3.218-0.386,5.367,0.026,6.446c0.321,0.825,1.108,1.315,2.359,1.469c1.312,0.161,2.219-0.091,2.725-0.755
			C236.368,124.411,236.87,122.295,237.279,118.958L237.279,118.958z M277.399,77.857l0.648-4.091
			c-6.522-1.033-11.154-0.764-13.896,0.808c-2.2,1.232-3.588,3.657-4.16,7.274l-7.96,50.255l10.318,1.634l7.86-49.632
			c0.508-3.202,1.341-5.198,2.498-5.987C273.523,77.577,275.087,77.491,277.399,77.857z"/>
		<path fill-rule="evenodd" clip-rule="evenodd" fill="#4A903D" d="M196.145,178.683c-0.062-17.21,1.751-33.608,6.291-47.962
			c1.81-0.051,3.476-0.248,4.994-0.588l-0.001-0.004c2.597-0.584,4.729-1.603,6.396-3.057l0.001,0.001
			c0.992-0.86,1.818-1.891,2.479-3.089c0.44,1.528,1.14,2.884,2.092,4.063l-0.002,0.002c1.943,2.418,4.948,4.151,9.012,5.201
			c0.716,0.185,1.464,0.35,2.243,0.492c0.894,0.164,1.694,0.291,2.397,0.377l0.016,0.002c1.104,0.136,2.159,0.226,3.166,0.268
			c1.304,11.191,3.418,22.728,6.531,34.207C227.925,173.358,212.54,176.82,196.145,178.683L196.145,178.683z M248.943,165.949
			c18.05-7.087,33.057-16.472,43.662-27.394c-8.638-3.102-17.117-5.824-25.431-8.2l-0.641,4.045
			c-0.331,2.093-2.757,3.853-4.849,3.521l-10.318-1.635c-2.093-0.331-3.853-2.757-3.521-4.85l0.159-1.002
			c-0.408,0.426-0.847,0.817-1.317,1.174l0.012,0.016l-0.008,0.007h-0.017c-0.506,0.382-1.067,0.733-1.686,1.052
			c-0.578,0.299-1.189,0.559-1.829,0.777c-0.524,0.179-1.076,0.333-1.652,0.462C242.821,144.661,245.308,155.408,248.943,165.949
			L248.943,165.949z M135.206,178.069c9.839-24.437,22.517-41.985,31.39-52.382c0.009,0.008,0.017,0.014,0.026,0.021l0.072,0.036
			c1.749,1.381,4.064,2.385,6.945,3.01c2.587,0.562,5.693,0.843,9.316,0.843c1.575,0,3.15-1.169,3.86-2.639
			c2.002,1.52,4.641,2.578,7.914,3.174c0.396,0.072,0.782,0.136,1.154,0.192c-4.022,11.236-8.871,28.067-11.604,49.409
			c-5.299,0.342-10.683,0.521-16.139,0.521C156.807,180.255,145.782,179.496,135.206,178.069L135.206,178.069z M160.675,126.747
			c-1.057,0.01-1.511,0.591-2.434,1.09c-2.73,1.475-6.361,2.292-10.889,2.449c-3.049,0.106-5.711-0.107-7.986-0.642
			c-2.623-0.615-4.744-1.657-6.36-3.122l0.013-0.015c-0.461-0.406-0.843-0.788-1.141-1.143c-0.244-0.29-0.488-0.621-0.732-0.99
			c-0.479,1.206-1.127,2.275-1.938,3.208l-0.009-0.008c-0.454,0.523-0.929,0.989-1.423,1.394l-0.008-0.01
			c-0.509,0.416-1.049,0.794-1.619,1.134c-2.674,1.597-6.252,2.592-10.73,2.982l-0.022,0.002c-0.162,0.015-0.33,0.028-0.507,0.04
			c-10.636,8.048-22.839,18.431-33.441,30.394c12.995,5.679,27.776,10.117,43.779,12.992
			C132.878,161.462,144.135,144.534,160.675,126.747L160.675,126.747z M48.57,143.213c6.415-2.964,13.833-6.074,22.187-9.087
			l0.215,1.352c0.33,2.093,2.757,3.853,4.85,3.521l23.037-3.649c1.904-0.301,3.533-2.337,3.563-4.277
			c1.338,0.77,2.882,1.334,4.628,1.689c-13.298,9.379-24.268,18.846-32.979,27.291C64.259,155.138,55.661,149.472,48.57,143.213z"/>
		<path fill-rule="evenodd" clip-rule="evenodd" fill="#F2DB00" d="M30.862,120.31l37.972,1.675l0.597,3.764
			c-3.387,0.809-6.699,1.637-9.928,2.473c-7.309,1.825-14.026,3.703-20.107,5.545C35.869,129.469,32.995,124.973,30.862,120.31
			L30.862,120.31z M26.765,94.79l39.293,9.662l0.973,6.144l-40.047-2.979c-0.376-2.363-0.578-4.756-0.578-7.172
			C26.405,98.543,26.532,96.66,26.765,94.79L26.765,94.79z M87.89,109.821l5.151,1.267c-0.323,0.462-0.632,0.924-0.941,1.373
			l-3.837-0.286L87.89,109.821L87.89,109.821z M35.093,72.956l27.824,11.672l1.32,8.336l-34.841-8.835
			C30.817,80.297,32.729,76.566,35.093,72.956L35.093,72.956z M85.393,94.056l9.087,3.812c-0.082,0.88-0.105,1.796-0.069,2.748
			l-8.313-2.108L85.393,94.056L85.393,94.056z M51.038,55.575l8.734,5.587c-0.256,0.65-0.359,1.342-0.254,2.001l1.478,9.335
			l-18.97-8.415C44.722,61.136,47.737,58.296,51.038,55.575L51.038,55.575z M82.483,75.688l10.388,6.645l0.392,4.479l-9.699-4.303
			L82.483,75.688L82.483,75.688z M72.59,41.586c-4.169,2.149-8.112,4.434-11.802,6.846l12.471,8.263l1.877-0.298
			c2.093-0.331,4.52,1.429,4.85,3.521l0.219,1.378l13.873,9.192c0.607-1.252,1.396-2.393,2.365-3.42
			c0.561-0.593,1.174-1.137,1.839-1.633L72.59,41.586L72.59,41.586z M97.991,31.14l20.33,31.434
			c-2.602-0.834-5.635-1.103-9.102-0.803c0,0-0.014,0.005-0.032,0.011L82.199,37.059C87.214,34.897,92.485,32.917,97.991,31.14
			L97.991,31.14z M123.861,24.641c-5.082,0.946-10.036,2.05-14.849,3.299l23.943,34.469c1.395-1.062,3.02-1.892,4.877-2.49
			L123.861,24.641L123.861,24.641z M152.245,21.143l2.303,39.143c-1.43-0.605-3.016-1.029-4.755-1.274l-13.104-36.384
			C141.776,21.973,146.969,21.477,152.245,21.143L152.245,21.143z M178.375,20.846l-6.025,31.174h-5.379l-2.7-31.354
			c1.285-0.02,2.576-0.032,3.871-0.032C171.583,20.635,174.992,20.708,178.375,20.846L178.375,20.846z M207.51,23.783
			l-20.392,41.289v-1.955c0-1.199-0.678-2.398-1.649-3.215l6.871-38.092C197.495,22.313,202.557,22.973,207.51,23.783L207.51,23.783
			z M235.237,30.184c-4.442-1.352-9.029-2.573-13.738-3.656l-16.214,32.875c1.789,0.215,3.426,0.579,4.908,1.093L235.237,30.184
			L235.237,30.184z M259.672,39.597l-31.615,25.497c-0.285,0.168-0.563,0.345-0.834,0.532c-0.842,0.582-1.604,1.244-2.284,1.983
			l-4.928,3.974c-0.26-1.354-0.67-2.608-1.229-3.762l28.339-33.584C251.481,35.893,255.67,37.685,259.672,39.597L259.672,39.597z
			 M284.091,54.643c-3.948-3.157-8.289-6.148-12.986-8.946l-23.542,19.116c2.353,0.978,4.277,2.315,5.772,4.012
			c0.245,0.279,0.478,0.566,0.697,0.86L284.091,54.643L284.091,54.643z M301.943,74.159l-21.935,6.889
			c0.815-0.652,1.422-1.554,1.576-2.526l0.647-4.091c0.332-2.092-1.428-4.518-3.521-4.85c-0.02-0.003-0.038-0.006-0.059-0.009
			l13.674-7.514C296.102,65.91,299.325,69.955,301.943,74.159L301.943,74.159z M298.492,84.596l7.572-2.525
			c2.458,5.826,3.772,11.895,3.806,18.128l-12.89,0.441l-25.381,1.779l1.473-9.293L298.492,84.596L298.492,84.596z M269.938,112.909
			l39.168-4.153c-1.59,8.582-5.612,16.766-11.669,24.331c-10.979-4.856-20.72-8.776-28.848-11.663L269.938,112.909z"/>
	</g>
</g>
</svg>
